<svg width="20" height="20" viewBox="0 0 20 20" fill="none" xmlns="http://www.w3.org/2000/svg">
<path d="M19.9766 2.85714H14.1667V0.714286C14.1667 0.524845 14.0789 0.343164 13.9226 0.209209C13.7663 0.0752549 13.5543 0 13.3333 0H6.66667C6.44565 0 6.23369 0.0752549 6.07741 0.209209C5.92113 0.343164 5.83333 0.524845 5.83333 0.714286V2.85714H0.0234373L0 4.64286H1.71875L2.7651 18.6607C2.79159 19.0232 2.97817 19.3635 3.2869 19.6123C3.59564 19.861 4.00333 19.9997 4.42708 20H15.5729C15.9964 20 16.404 19.8617 16.7129 19.6134C17.0218 19.365 17.2088 19.0252 17.2359 18.6629L18.2812 4.64286H20L19.9766 2.85714ZM5.83333 17.1429L5.36458 5.71429H7.08333L7.55208 17.1429H5.83333ZM10.8333 17.1429H9.16667V5.71429H10.8333V17.1429ZM12.0833 2.85714H7.91667V1.60714C7.91667 1.55978 7.93862 1.51436 7.97769 1.48087C8.01676 1.44739 8.06975 1.42857 8.125 1.42857H11.875C11.9303 1.42857 11.9832 1.44739 12.0223 1.48087C12.0614 1.51436 12.0833 1.55978 12.0833 1.60714V2.85714ZM14.1667 17.1429H12.4479L12.9167 5.71429H14.6354L14.1667 17.1429Z" fill="#E47979"/>
</svg>
