<svg width="39" height="41" viewBox="0 0 39 41" fill="none" xmlns="http://www.w3.org/2000/svg">
<path d="M14.625 37.5833C15.5225 37.5833 16.25 36.8185 16.25 35.875C16.25 34.9315 15.5225 34.1667 14.625 34.1667C13.7275 34.1667 13 34.9315 13 35.875C13 36.8185 13.7275 37.5833 14.625 37.5833Z" stroke="black" stroke-width="2" stroke-linecap="round" stroke-linejoin="round"/>
<path d="M32.5 37.5833C33.3975 37.5833 34.125 36.8185 34.125 35.875C34.125 34.9315 33.3975 34.1667 32.5 34.1667C31.6025 34.1667 30.875 34.9315 30.875 35.875C30.875 36.8185 31.6025 37.5833 32.5 37.5833Z" stroke="black" stroke-width="2" stroke-linecap="round" stroke-linejoin="round"/>
<path d="M1.625 1.70833H8.125L12.48 24.5829C12.6286 25.3694 13.0356 26.0759 13.6298 26.5788C14.2239 27.0816 14.9674 27.3487 15.73 27.3333H31.525C32.2876 27.3487 33.0311 27.0816 33.6252 26.5788C34.2194 26.0759 34.6264 25.3694 34.775 24.5829L37.375 10.25H9.75" stroke="black" stroke-width="2" stroke-linecap="round" stroke-linejoin="round"/>
</svg>
